# xmcd
#
# Track frame offsets:
# 150
# 18237
# 36991
# 54097
# 73791
# 98505
# 116586
# 129095
# 147642
# 162157
# 178351
#
# Disc length: 2476 seconds
#
#
# Revision: 0
# Processed by: cddbd v1.5.2PL0 Copyright (c) Steve Scherf et al.
# Submitted via: Nero 7, 11, 10, 0 
#
DISCID=9209aa0b
DTITLE=Will Thomas - Alabama Day
DYEAR=2000
DGENRE=Blues
TTITLE0=Alabama Day
TTITLE1=Be Thankful
TTITLE2=She Gets Me
TTITLE3=Waffle House
TTITLE4=Got No blues
TTITLE5=Sleep Doctor
TTITLE6=Powers Of Deception
TTITLE7=Come My Way
TTITLE8=Let Love Come Between Us
TTITLE9=Too Late
TTITLE10=Untitled
EXTD=
EXTT0=Alabama Day
EXTT1=Be Thankful
EXTT2=She Gets Me
EXTT3=Waffle House
EXTT4=Got No blues
EXTT5=Sleep Doctor
EXTT6=Powers Of Deception
EXTT7=Come My Way
EXTT8=Let Love Come Between Us
EXTT9=Too Late
EXTT10=Untitled
PLAYORDER=
